<?xml version="1.0" encoding="UTF-8" standalone="no"?>
<!DOCTYPE svg PUBLIC "-//W3C//DTD SVG 1.1//EN" "http://www.w3.org/Graphics/SVG/1.1/DTD/svg11.dtd">
<svg xmlns="http://www.w3.org/2000/svg" version="1.1" viewBox="0.00 0.00 296.00 303.00">
<g stroke-width="2.00" fill="none" stroke-linecap="butt">
<path stroke="#b12b3c" vector-effect="non-scaling-stroke" d="
  M 18.72 130.16
  Q 11.84 175.67 32.59 216.10
  C 46.11 242.47 68.18 262.36 94.44 274.76
  C 145.70 298.95 209.12 285.45 246.87 243.31
  C 252.02 237.57 260.05 228.30 263.96 221.72
  C 271.08 209.72 264.22 191.91 249.50 190.55
  C 238.43 189.53 233.93 194.97 228.32 203.27
  Q 224.13 209.47 216.46 217.70
  C 195.95 239.71 168.58 250.72 138.44 247.08
  C 118.78 244.71 101.34 236.72 86.86 223.33
  C 68.92 206.73 59.21 186.76 56.55 162.47"
/>
<path stroke="#b12b3c" vector-effect="non-scaling-stroke" d="
  M 56.55 162.47
  C 54.77 141.24 58.95 118.36 70.92 100.43
  C 95.63 63.41 139.06 45.38 181.48 63.94
  Q 190.57 67.92 192.37 68.25
  Q 200.23 69.68 207.49 64.72
  C 217.91 57.60 216.93 42.81 208.83 34.63
  Q 204.73 30.50 194.53 26.68
  C 175.36 19.51 153.38 15.20 133.44 17.90
  Q 80.59 25.08 47.46 65.92
  C 32.83 83.96 22.24 107.24 18.72 130.16"
/>
<path stroke="#b12b3c" vector-effect="non-scaling-stroke" d="
  M 56.55 162.47
  Q 56.08 162.51 55.82 163.24
  Q 55.73 163.49 55.62 163.25
  Q 55.56 163.13 55.50 163.00
  A 0.14 0.14 0.0 0 0 55.25 163.00
  Q 55.19 163.13 55.12 163.26
  Q 55.11 163.28 55.11 163.26
  Q 55.03 162.98 54.72 162.80
  Q 54.56 162.70 54.45 162.79
  Q 54.38 162.85 54.37 162.75
  Q 54.19 161.42 52.96 160.93
  Q 52.40 160.71 52.40 161.31
  Q 52.40 162.03 53.23 162.49
  Q 53.25 162.50 53.22 162.46
  Q 53.18 162.38 53.29 162.37
  Q 53.38 162.36 53.38 162.50
  Q 53.38 162.64 53.38 162.77
  A 0.10 0.03 9.6 0 1 53.27 162.78
  L 49.51 162.09
  Q 49.44 162.07 49.46 162.05
  Q 49.53 161.95 49.60 161.83
  Q 49.68 161.66 49.55 161.53
  Q 48.14 160.06 47.35 158.19
  Q 47.17 157.76 46.75 157.54
  Q 46.03 157.17 45.91 156.45
  Q 45.86 156.16 45.76 155.87
  Q 45.52 155.12 45.06 154.44
  Q 44.80 154.06 44.76 153.59
  Q 44.67 152.53 43.71 152.26
  Q 43.28 152.14 43.04 151.77
  Q 41.84 149.90 40.09 148.59
  C 38.97 147.74 38.26 146.52 36.86 145.91
  Q 36.40 145.71 36.08 145.34
  Q 35.04 144.13 33.39 143.20
  Q 32.91 142.93 32.75 142.24
  A 1.03 1.02 -77.9 0 0 32.36 141.63
  Q 29.24 139.30 25.92 137.30
  C 25.03 136.77 24.11 136.80 23.16 136.11
  Q 22.79 135.84 22.57 135.44
  Q 21.94 134.29 20.85 133.72
  Q 20.53 133.55 20.40 133.21
  L 19.70 131.42
  Q 19.48 130.86 19.89 130.41
  Q 20.45 129.80 20.29 128.90
  Q 20.25 128.65 20.00 128.70
  L 19.75 128.74
  Q 19.67 128.76 19.68 128.84
  Q 19.84 130.20 18.72 130.16"
/>
<path stroke="#b12b3c" vector-effect="non-scaling-stroke" d="
  M 154.91 163.29
  A 0.64 0.64 0.0 0 1 153.98 163.30
  Q 140.34 149.29 126.60 135.24
  Q 118.91 127.38 116.63 126.11
  C 107.37 120.95 95.59 125.30 90.65 134.61
  C 84.05 147.05 90.32 155.98 98.92 164.83
  Q 116.96 183.41 135.30 201.70
  Q 140.99 207.37 144.35 209.02
  C 153.72 213.62 164.65 209.74 171.76 202.73
  C 203.96 170.96 235.79 138.75 268.33 107.33
  Q 273.82 102.03 275.30 98.53
  C 279.26 89.11 275.07 78.55 267.70 73.30
  C 258.82 66.98 248.90 68.53 241.25 75.98
  Q 221.73 95.01 211.61 105.36
  C 192.72 124.67 173.51 143.70 154.91 163.29"
/>
</g>
<path fill="#b12b3c" d="
  M 56.55 162.47
  Q 56.08 162.51 55.82 163.24
  Q 55.73 163.49 55.62 163.25
  Q 55.56 163.13 55.50 163.00
  A 0.14 0.14 0.0 0 0 55.25 163.00
  Q 55.19 163.13 55.12 163.26
  Q 55.11 163.28 55.11 163.26
  Q 55.03 162.98 54.72 162.80
  Q 54.56 162.70 54.45 162.79
  Q 54.38 162.85 54.37 162.75
  Q 54.19 161.42 52.96 160.93
  Q 52.40 160.71 52.40 161.31
  Q 52.40 162.03 53.23 162.49
  Q 53.25 162.50 53.22 162.46
  Q 53.18 162.38 53.29 162.37
  Q 53.38 162.36 53.38 162.50
  Q 53.38 162.64 53.38 162.77
  A 0.10 0.03 9.6 0 1 53.27 162.78
  L 49.51 162.09
  Q 49.44 162.07 49.46 162.05
  Q 49.53 161.95 49.60 161.83
  Q 49.68 161.66 49.55 161.53
  Q 48.14 160.06 47.35 158.19
  Q 47.17 157.76 46.75 157.54
  Q 46.03 157.17 45.91 156.45
  Q 45.86 156.16 45.76 155.87
  Q 45.52 155.12 45.06 154.44
  Q 44.80 154.06 44.76 153.59
  Q 44.67 152.53 43.71 152.26
  Q 43.28 152.14 43.04 151.77
  Q 41.84 149.90 40.09 148.59
  C 38.97 147.74 38.26 146.52 36.86 145.91
  Q 36.40 145.71 36.08 145.34
  Q 35.04 144.13 33.39 143.20
  Q 32.91 142.93 32.75 142.24
  A 1.03 1.02 -77.9 0 0 32.36 141.63
  Q 29.24 139.30 25.92 137.30
  C 25.03 136.77 24.11 136.80 23.16 136.11
  Q 22.79 135.84 22.57 135.44
  Q 21.94 134.29 20.85 133.72
  Q 20.53 133.55 20.40 133.21
  L 19.70 131.42
  Q 19.48 130.86 19.89 130.41
  Q 20.45 129.80 20.29 128.90
  Q 20.25 128.65 20.00 128.70
  L 19.75 128.74
  Q 19.67 128.76 19.68 128.84
  Q 19.84 130.20 18.72 130.16
  C 22.24 107.24 32.83 83.96 47.46 65.92
  Q 80.59 25.08 133.44 17.90
  C 153.38 15.20 175.36 19.51 194.53 26.68
  Q 204.73 30.50 208.83 34.63
  C 216.93 42.81 217.91 57.60 207.49 64.72
  Q 200.23 69.68 192.37 68.25
  Q 190.57 67.92 181.48 63.94
  C 139.06 45.38 95.63 63.41 70.92 100.43
  C 58.95 118.36 54.77 141.24 56.55 162.47
  Z"
/>
<path fill="#b12b3c" d="
  M 154.91 163.29
  C 173.51 143.70 192.72 124.67 211.61 105.36
  Q 221.73 95.01 241.25 75.98
  C 248.90 68.53 258.82 66.98 267.70 73.30
  C 275.07 78.55 279.26 89.11 275.30 98.53
  Q 273.82 102.03 268.33 107.33
  C 235.79 138.75 203.96 170.96 171.76 202.73
  C 164.65 209.74 153.72 213.62 144.35 209.02
  Q 140.99 207.37 135.30 201.70
  Q 116.96 183.41 98.92 164.83
  C 90.32 155.98 84.05 147.05 90.65 134.61
  C 95.59 125.30 107.37 120.95 116.63 126.11
  Q 118.91 127.38 126.60 135.24
  Q 140.34 149.29 153.98 163.30
  A 0.64 0.64 0.0 0 0 154.91 163.29
  Z"
/>
<path fill="#b12b3c" d="
  M 56.55 162.47
  C 59.21 186.76 68.92 206.73 86.86 223.33
  C 101.34 236.72 118.78 244.71 138.44 247.08
  C 168.58 250.72 195.95 239.71 216.46 217.70
  Q 224.13 209.47 228.32 203.27
  C 233.93 194.97 238.43 189.53 249.50 190.55
  C 264.22 191.91 271.08 209.72 263.96 221.72
  C 260.05 228.30 252.02 237.57 246.87 243.31
  C 209.12 285.45 145.70 298.95 94.44 274.76
  C 68.18 262.36 46.11 242.47 32.59 216.10
  Q 11.84 175.67 18.72 130.16
  Q 19.84 130.20 19.68 128.84
  Q 19.67 128.76 19.75 128.74
  L 20.00 128.70
  Q 20.25 128.65 20.29 128.90
  Q 20.45 129.80 19.89 130.41
  Q 19.48 130.86 19.70 131.42
  L 20.40 133.21
  Q 20.53 133.55 20.85 133.72
  Q 21.94 134.29 22.57 135.44
  Q 22.79 135.84 23.16 136.11
  C 24.11 136.80 25.03 136.77 25.92 137.30
  Q 29.24 139.30 32.36 141.63
  A 1.03 1.02 -77.9 0 1 32.75 142.24
  Q 32.91 142.93 33.39 143.20
  Q 35.04 144.13 36.08 145.34
  Q 36.40 145.71 36.86 145.91
  C 38.26 146.52 38.97 147.74 40.09 148.59
  Q 41.84 149.90 43.04 151.77
  Q 43.28 152.14 43.71 152.26
  Q 44.67 152.53 44.76 153.59
  Q 44.80 154.06 45.06 154.44
  Q 45.52 155.12 45.76 155.87
  Q 45.86 156.16 45.91 156.45
  Q 46.03 157.17 46.75 157.54
  Q 47.17 157.76 47.35 158.19
  Q 48.14 160.06 49.55 161.53
  Q 49.68 161.66 49.60 161.83
  Q 49.53 161.95 49.46 162.05
  Q 49.44 162.07 49.51 162.09
  L 53.27 162.78
  A 0.10 0.03 9.6 0 0 53.38 162.77
  Q 53.38 162.64 53.38 162.50
  Q 53.38 162.36 53.29 162.37
  Q 53.18 162.38 53.22 162.46
  Q 53.25 162.50 53.23 162.49
  Q 52.40 162.03 52.40 161.31
  Q 52.40 160.71 52.96 160.93
  Q 54.19 161.42 54.37 162.75
  Q 54.38 162.85 54.45 162.79
  Q 54.56 162.70 54.72 162.80
  Q 55.03 162.98 55.11 163.26
  Q 55.11 163.28 55.12 163.26
  Q 55.19 163.13 55.25 163.00
  A 0.14 0.14 0.0 0 1 55.50 163.00
  Q 55.56 163.13 55.62 163.25
  Q 55.73 163.49 55.82 163.24
  Q 56.08 162.51 56.55 162.47
  Z"
/>
</svg>
